<?xml version="1.0" standalone="no"?>
<!DOCTYPE svg PUBLIC "-//W3C//DTD SVG 20010904//EN"
 "http://www.w3.org/TR/2001/REC-SVG-20010904/DTD/svg10.dtd">
<svg version="1.0" xmlns="http://www.w3.org/2000/svg"
 width="500.000000pt" height="500.000000pt" viewBox="0 0 500.000000 500.000000"
 preserveAspectRatio="xMidYMid meet">
<metadata>
Created by potrace 1.14, written by Peter Selinger 2001-2017
</metadata>
<g transform="translate(0.000000,500.000000) scale(0.100000,-0.100000)"
fill="#000000" stroke="none">
<path d="M2128 4758 c-135 -134 -499 -493 -808 -798 -309 -305 -577 -569 -596
-588 -19 -18 -34 -35 -34 -38 0 -3 53 -58 118 -122 66 -64 386 -380 712 -702
326 -322 652 -643 723 -714 l131 -129 -156 -151 c-85 -83 -285 -277 -443 -431
-159 -154 -320 -311 -360 -350 -149 -146 -679 -662 -716 -697 l-40 -38 451 0
452 0 27 27 c46 45 598 583 703 684 53 52 223 218 378 369 155 151 354 345
443 431 l160 155 -130 130 c-128 127 -1204 1190 -1437 1419 l-120 118 406 401
c223 221 603 596 844 834 l438 432 -450 0 -449 0 -247 -242z m1012 -3145 c0
-3 -248 -248 -456 -449 -45 -44 -222 -216 -394 -384 -172 -168 -343 -334 -380
-370 -37 -36 -135 -131 -218 -213 l-150 -147 -379 0 -378 0 165 161 c91 89
242 236 336 328 94 91 303 295 465 452 162 158 372 363 468 456 l174 170 374
0 c205 0 373 -2 373 -4z"/>
<path d="M3305 4874 c-71 -69 -258 -251 -413 -403 -156 -152 -332 -323 -390
-379 -150 -145 -666 -647 -724 -704 -26 -26 -48 -51 -48 -55 0 -5 125 -131
277 -282 153 -150 531 -523 840 -829 l562 -555 -173 -171 c-1007 -995 -1446
-1429 -1462 -1443 -61 -57 -89 -53 402 -53 l449 1 430 425 c237 235 616 610
842 834 l413 407 -598 591 c-328 324 -706 697 -839 828 -134 132 -243 243
-243 248 0 5 29 36 64 70 35 33 194 187 352 341 158 154 317 309 354 345 37
36 195 189 351 342 156 152 352 342 434 422 l150 146 -450 0 -450 0 -130 -126z
m827 -1 c-86 -84 -583 -567 -717 -698 -45 -44 -209 -204 -365 -355 -155 -151
-320 -312 -365 -356 l-83 -81 -378 0 -378 0 175 170 c96 93 313 305 483 471
171 165 393 383 495 482 102 100 247 241 321 313 l135 131 378 0 379 0 -80
-77z"/>
</g>
</svg>
